<svg version="1.1" id="Layer_1" xmlns="http://www.w3.org/2000/svg" xmlns:xlink="http://www.w3.org/1999/xlink" x="0px" y="0px"
	 width="100%" viewBox="0 0 246 205" enable-background="new 0 0 246 205" xml:space="preserve">
<path fill="#FEFEFE" opacity="1.000000" stroke="none" 
	d="
M150.000000,206.000000 
	C100.000000,206.000000 50.500008,206.000000 1.000007,206.000000 
	C1.000004,137.666672 1.000004,69.333351 1.000002,1.000016 
	C82.999992,1.000010 164.999985,1.000010 246.999969,1.000005 
	C246.999985,69.333321 246.999985,137.666641 247.000000,205.999969 
	C214.833328,206.000000 182.666672,206.000000 150.000000,206.000000 
M51.008152,166.864075 
	C47.897873,169.909897 44.787590,172.955704 41.677311,176.001526 
	C42.061752,176.393539 42.446198,176.785568 42.830643,177.177597 
	C46.471970,174.203827 50.113300,171.230042 54.188828,168.876862 
	C77.163834,187.918152 103.357002,194.735611 132.492920,188.422852 
	C185.930130,176.844864 217.667908,119.450523 195.989944,65.643333 
	C208.604614,53.987823 220.532425,41.816708 226.747192,25.256996 
	C215.127762,36.238586 203.282806,46.649391 188.778275,53.368980 
	C166.665726,20.978794 135.610306,7.382318 97.423080,13.423936 
	C46.725037,21.444899 14.953099,69.879753 24.832701,120.900436 
	C20.503235,123.394081 16.173771,125.887718 11.844307,128.381363 
	C12.071491,128.853577 12.298676,129.325790 12.525860,129.798019 
	C16.980963,127.731033 21.436066,125.664055 26.147659,124.352104 
	C30.758959,140.629883 39.039146,154.700241 51.008152,166.864075 
z"/>
<path fill="#0D3E91" opacity="1.000000" stroke="none" 
	d="
M195.512726,66.193222 
	C217.667908,119.450523 185.930130,176.844864 132.492920,188.422852 
	C103.357002,194.735611 77.163834,187.918152 54.176491,168.343643 
	C70.608978,155.430588 87.053802,143.050751 103.727394,130.975220 
	C106.525398,134.074142 108.906013,137.089417 111.770844,139.538177 
	C112.715584,140.345734 114.911278,139.689789 116.534973,139.703033 
	C115.973755,138.321777 115.767586,136.566528 114.782722,135.631470 
	C112.147484,133.129486 109.178261,130.979279 106.598083,128.445786 
	C112.173615,124.704460 117.492798,121.206657 122.896523,118.077682 
	C123.188118,118.873924 123.395172,119.301346 123.602219,119.728760 
	C126.124428,116.925011 128.615356,117.307167 131.439484,119.449249 
	C132.343811,120.135170 134.049805,120.179024 135.281815,119.947113 
	C140.979279,118.874634 146.570770,117.453903 151.033203,112.820648 
	C155.619263,111.704201 154.514389,115.128075 155.250427,117.465683 
	C156.615616,118.553520 157.796692,119.343216 158.654190,119.916565 
	C160.421112,119.091591 162.533203,118.105469 164.255081,117.301521 
	C164.255081,115.076912 164.255081,112.871216 164.255081,109.995018 
	C168.203812,110.209457 171.927826,109.914833 175.228378,110.958893 
	C176.002014,111.203621 175.342804,115.977936 175.342804,119.254898 
	C181.175369,118.853180 186.943451,118.455902 192.669662,118.061508 
	C189.382065,109.411491 186.172623,101.286758 183.219437,93.069916 
	C181.601273,88.567574 180.712799,83.659943 174.856873,82.679504 
	C181.859039,76.981522 188.685883,71.587364 195.512726,66.193222 
z"/>
<path fill="#0C3D91" opacity="1.000000" stroke="none" 
	d="
M25.390251,120.520370 
	C14.953099,69.879753 46.725037,21.444899 97.423080,13.423936 
	C135.610306,7.382318 166.665726,20.978794 188.715607,53.958473 
	C171.198486,62.740448 153.744019,70.932930 136.027008,78.888519 
	C126.686378,68.161858 117.229424,58.090607 104.956360,50.634529 
	C97.662064,45.937004 90.425636,41.858723 81.685181,41.968338 
	C74.817268,42.054462 69.457863,45.739113 68.336357,52.363087 
	C67.508240,57.254250 67.734558,62.439049 68.264832,67.410484 
	C68.730934,71.780167 70.271500,76.035225 71.229111,80.810898 
	C71.056656,82.238663 70.992607,83.196442 70.487534,84.132217 
	C67.468826,84.110229 64.891151,84.110229 63.235573,84.110229 
	C63.578472,89.890579 63.898808,95.290550 64.219139,100.690521 
	C63.808792,100.875313 63.398445,101.060104 62.988094,101.244888 
	C61.968098,100.170525 60.742115,99.226189 59.966507,97.997543 
	C57.582020,94.220245 55.468178,90.269997 53.028339,86.531059 
	C52.335747,85.469688 50.930710,84.295967 49.779545,84.215446 
	C45.747276,83.933426 41.683205,84.106110 37.365036,84.106110 
	C38.408829,85.825409 39.084316,86.938057 39.513199,88.377182 
	C39.203197,97.135101 39.139809,105.566536 39.143681,114.036194 
	C39.210938,114.074425 39.242134,114.225983 38.884354,114.267044 
	C34.147797,116.378860 29.769024,118.449615 25.390251,120.520370 
z"/>
<path fill="#0D3D91" opacity="1.000000" stroke="none" 
	d="
M51.396580,166.317474 
	C39.039146,154.700241 30.758959,140.629883 26.288307,123.763199 
	C30.350262,121.490311 34.271568,119.806335 38.617233,118.107925 
	C41.422424,118.061241 43.805370,118.063042 46.178997,117.915169 
	C46.327038,117.905937 46.401966,116.723152 46.807690,115.825859 
	C49.521656,114.687073 51.938847,113.808784 54.611794,113.163620 
	C58.230164,122.730698 65.302094,117.957375 70.252625,117.802544 
	C69.884064,114.792145 69.524071,111.851799 69.550674,108.902847 
	C74.685310,107.725777 79.433357,106.557320 84.198349,105.822632 
	C82.707108,110.374077 81.198898,114.491745 79.770012,118.392883 
	C82.245758,118.200775 85.219772,117.970001 87.881424,117.763466 
	C87.881424,115.388702 87.881424,113.285759 87.881424,110.326126 
	C92.710449,116.480545 96.887520,121.804070 100.883797,127.408936 
	C82.839073,138.742630 66.825783,152.157272 51.396580,166.317474 
z"/>
<path fill="#F93E24" opacity="1.000000" stroke="none" 
	d="
M136.289536,79.125412 
	C153.744019,70.932930 171.198486,62.740448 188.857819,54.267910 
	C203.282806,46.649391 215.127762,36.238586 226.747192,25.256996 
	C220.532425,41.816708 208.604614,53.987823 195.751343,65.918274 
	C188.685883,71.587364 181.859039,76.981522 174.609589,82.903023 
	C171.051193,85.843048 167.915405,88.255722 164.416687,90.686508 
	C159.133224,93.573326 154.212723,96.442017 149.173279,98.935928 
	C148.872009,97.803360 148.689682,97.045578 148.821243,96.078506 
	C158.162903,89.283020 167.190674,82.696808 176.218445,76.110603 
	C175.951675,75.720001 175.684906,75.329407 175.418137,74.938805 
	C166.543716,78.839233 157.669296,82.739662 148.571472,86.202888 
	C143.420410,85.201439 138.436005,84.740234 136.289536,79.125412 
z"/>
<path fill="#FB4527" opacity="1.000000" stroke="none" 
	d="
M51.202366,166.590775 
	C66.825783,152.157272 82.839073,138.742630 101.159973,127.364853 
	C102.172020,126.570847 102.727097,126.102264 103.610596,125.489388 
	C106.992554,123.231262 110.046082,121.117424 113.380638,118.987869 
	C114.113350,118.683319 114.565018,118.394485 115.268341,117.973953 
	C115.755798,117.554146 115.991615,117.266022 116.539078,116.868828 
	C122.044060,113.208893 127.237396,109.658020 132.756287,106.030121 
	C137.021667,103.468704 140.961533,100.984322 145.217209,98.341316 
	C145.963776,97.992531 146.394531,97.802376 147.041275,97.855515 
	C147.523956,98.675972 147.790634,99.253128 148.013184,100.149765 
	C147.934586,100.681450 147.900131,100.893677 147.564911,101.235596 
	C144.176849,103.524002 141.089523,105.682716 137.670166,107.937866 
	C134.854385,109.733086 132.370636,111.431877 129.530029,113.229019 
	C127.052788,114.787872 124.932388,116.248367 122.811981,117.708862 
	C117.492798,121.206657 112.173615,124.704460 106.334549,128.558838 
	C105.042671,129.500580 104.270653,130.085754 103.498642,130.670929 
	C87.053802,143.050751 70.608978,155.430588 53.959389,168.033340 
	C50.113300,171.230042 46.471970,174.203827 42.830643,177.177597 
	C42.446198,176.785568 42.061752,176.393539 41.677311,176.001526 
	C44.787590,172.955704 47.897873,169.909897 51.202366,166.590775 
z"/>
<path fill="#FC3716" opacity="1.000000" stroke="none" 
	d="
M38.192871,118.122353 
	C34.271568,119.806335 30.350262,121.490311 26.160063,123.385681 
	C21.436066,125.664055 16.980963,127.731033 12.525860,129.798019 
	C12.298676,129.325790 12.071491,128.853577 11.844307,128.381363 
	C16.173771,125.887718 20.503235,123.394081 25.111475,120.710403 
	C29.769024,118.449615 34.147797,116.378860 38.897781,114.628136 
	C38.910286,116.006226 38.551579,117.064285 38.192871,118.122353 
z"/>
<path fill="#F9F9FB" opacity="1.000000" stroke="none" 
	d="
M164.779633,90.668396 
	C167.915405,88.255722 171.051193,85.843048 174.434265,83.206848 
	C180.712799,83.659943 181.601273,88.567574 183.219437,93.069916 
	C186.172623,101.286758 189.382065,109.411491 192.669662,118.061508 
	C186.943451,118.455902 181.175369,118.853180 175.342804,119.254898 
	C175.342804,115.977936 176.002014,111.203621 175.228378,110.958893 
	C171.927826,109.914833 168.203812,110.209457 164.255081,109.995018 
	C164.255081,112.871216 164.255081,115.076912 164.255081,117.301521 
	C162.533203,118.105469 160.421112,119.091591 158.654190,119.916565 
	C157.796692,119.343216 156.615616,118.553520 155.598328,117.335350 
	C161.527115,109.108971 162.331406,99.606194 164.779633,90.668396 
M172.829788,102.715218 
	C171.733231,100.098427 170.636673,97.481636 169.148422,93.930092 
	C167.799896,98.396729 166.732071,101.933640 165.615097,105.633331 
	C168.624374,105.633331 171.118561,105.633331 173.766907,105.633331 
	C173.460541,104.690666 173.260315,104.074547 172.829788,102.715218 
z"/>
<path fill="#FAF9FB" opacity="1.000000" stroke="none" 
	d="
M138.002182,107.841431 
	C141.089523,105.682716 144.176849,103.524002 147.661011,101.434937 
	C148.057831,101.504578 148.400757,101.778076 148.400757,101.778076 
	C148.400757,101.778076 148.834259,101.712845 149.200470,101.773743 
	C153.480942,105.160164 154.646164,108.765312 150.691376,112.891281 
	C146.570770,117.453903 140.979279,118.874634 135.281815,119.947113 
	C134.049805,120.179024 132.343811,120.135170 131.439484,119.449249 
	C128.615356,117.307167 126.124428,116.925011 123.602219,119.728760 
	C123.395172,119.301346 123.188118,118.873924 122.896530,118.077682 
	C124.932388,116.248367 127.052788,114.787872 129.893311,113.506424 
	C132.589172,113.718536 134.635056,114.080124 136.517914,113.678123 
	C137.958267,113.370598 139.192490,112.097626 140.518387,111.254089 
	C139.679657,110.116539 138.840912,108.978981 138.002182,107.841431 
z"/>
<path fill="#133F92" opacity="1.000000" stroke="none" 
	d="
M151.033203,112.820648 
	C154.646164,108.765312 153.480942,105.160164 149.327698,101.568733 
	C149.099274,100.832260 149.109833,100.361694 149.163559,99.746094 
	C149.206726,99.601051 149.292221,99.310707 149.292221,99.310707 
	C154.212723,96.442017 159.133224,93.573326 164.416672,90.686508 
	C162.331406,99.606194 161.527115,109.108971 155.414215,117.037216 
	C154.514389,115.128075 155.619263,111.704201 151.033203,112.820648 
z"/>
<path fill="#F0F1F6" opacity="1.000000" stroke="none" 
	d="
M103.727402,130.975235 
	C104.270653,130.085754 105.042671,129.500580 106.078209,128.802368 
	C109.178261,130.979279 112.147484,133.129486 114.782722,135.631470 
	C115.767586,136.566528 115.973755,138.321777 116.534973,139.703033 
	C114.911278,139.689789 112.715584,140.345734 111.770844,139.538177 
	C108.906013,137.089417 106.525398,134.074142 103.727402,130.975235 
z"/>
<path fill="#F8F8FA" opacity="1.000000" stroke="none" 
	d="
M38.617233,118.107925 
	C38.551579,117.064285 38.910286,116.006226 39.255562,114.587067 
	C39.242134,114.225983 39.210938,114.074425 39.541763,113.853058 
	C39.834991,105.104698 39.797398,96.577698 39.759804,88.050697 
	C39.084316,86.938057 38.408829,85.825409 37.365036,84.106110 
	C41.683205,84.106110 45.747276,83.933426 49.779545,84.215446 
	C50.930710,84.295967 52.335747,85.469688 53.028339,86.531059 
	C55.468178,90.269997 57.582020,94.220245 59.966507,97.997543 
	C60.742115,99.226189 61.968098,100.170525 62.988094,101.244888 
	C63.398445,101.060104 63.808792,100.875313 64.219139,100.690521 
	C63.898808,95.290550 63.578472,89.890579 63.235573,84.110229 
	C64.891151,84.110229 67.468826,84.110229 70.375809,84.492447 
	C70.195206,90.428337 69.685318,95.982010 69.089386,101.925995 
	C69.056931,104.514687 69.110512,106.713066 69.164085,108.911453 
	C69.524071,111.851799 69.884064,114.792145 70.252625,117.802544 
	C65.302094,117.957375 58.230164,122.730698 54.510742,112.831406 
	C53.409187,111.113098 52.664436,109.960144 51.836224,108.483971 
	C50.255432,105.700722 48.758106,103.240685 47.010502,100.369446 
	C43.573360,104.062347 45.364765,107.785919 45.008709,111.512680 
	C45.466591,113.266281 45.988750,114.676323 46.510910,116.086357 
	C46.401966,116.723152 46.327038,117.905937 46.178997,117.915169 
	C43.805370,118.063042 41.422424,118.061241 38.617233,118.107925 
z"/>
<path fill="#F8F4F6" opacity="1.000000" stroke="none" 
	d="
M149.173279,98.935928 
	C149.292221,99.310707 149.206726,99.601051 148.893097,99.806366 
	C148.405426,99.951225 148.231384,99.890755 148.057312,99.830292 
	C147.790634,99.253128 147.523956,98.675972 146.915527,97.571701 
	C145.319809,95.098862 144.220932,93.027985 142.775482,91.236771 
	C140.617661,88.562782 134.677032,89.820045 133.124557,93.540436 
	C137.046310,95.191978 140.973846,96.845955 144.901382,98.499939 
	C140.961533,100.984322 137.021667,103.468704 132.406097,105.879211 
	C126.895599,104.091011 123.028702,101.417030 122.026489,95.578789 
	C123.255913,87.742012 125.513138,85.697495 135.555679,83.475784 
	C134.955917,82.182098 134.418365,81.022598 133.777771,79.555527 
	C123.791847,70.136406 113.908958,61.024868 104.153992,51.692146 
	C104.567581,51.290195 104.853241,51.109425 105.138908,50.928654 
	C117.229424,58.090607 126.686378,68.161858 136.027008,78.888512 
	C138.436005,84.740234 143.420410,85.201439 148.424438,86.546371 
	C149.762787,90.313042 144.130219,93.304070 148.507355,96.287788 
	C148.689682,97.045578 148.872009,97.803360 149.173279,98.935928 
z"/>
<path fill="#E1E4EE" opacity="1.000000" stroke="none" 
	d="
M104.956360,50.634529 
	C104.853241,51.109425 104.567581,51.290195 103.845764,51.639187 
	C102.129761,51.155628 100.849907,50.503841 99.386444,49.593208 
	C98.803947,49.218227 98.405067,49.102100 98.003937,48.993618 
	C98.001694,49.001266 98.015701,48.989529 97.826469,48.764160 
	C97.092926,48.356342 96.548615,48.173897 96.002304,47.995880 
	C96.000305,48.000305 96.009247,47.992996 95.812958,47.780357 
	C95.081535,47.400146 94.546402,47.232574 93.868103,46.961540 
	C93.724937,46.858082 93.371773,46.866840 93.167770,46.596840 
	C92.307693,46.213478 91.651611,46.100124 90.897552,45.884033 
	C90.799561,45.781300 90.523766,45.848827 90.293716,45.582497 
	C89.379761,45.231304 88.695862,45.146446 87.715714,44.934616 
	C86.997391,44.740555 86.575294,44.673470 85.813202,44.415554 
	C82.286430,44.796543 79.099648,45.368362 75.945457,45.964161 
	C75.978043,45.988140 75.964630,45.908344 75.670074,45.969467 
	C75.101265,46.310757 74.827003,46.590919 74.243011,47.015503 
	C68.301125,53.135616 68.721428,60.644268 70.700722,67.320671 
	C73.726654,77.527512 78.373871,87.253700 82.119881,97.428055 
	C81.276398,97.749710 80.645866,97.827248 79.927734,97.568573 
	C77.005936,91.601875 74.171730,85.971390 71.337524,80.340912 
	C70.271500,76.035225 68.730934,71.780167 68.264832,67.410484 
	C67.734558,62.439049 67.508240,57.254250 68.336357,52.363087 
	C69.457863,45.739113 74.817268,42.054462 81.685181,41.968338 
	C90.425636,41.858723 97.662064,45.937004 104.956360,50.634529 
z"/>
<path fill="#0E3D91" opacity="1.000000" stroke="none" 
	d="
M71.229111,80.810898 
	C74.171730,85.971390 77.005936,91.601875 79.617775,97.775299 
	C75.988747,99.390724 72.582085,100.463203 69.175423,101.535690 
	C69.685318,95.982010 70.195206,90.428337 70.816833,84.514435 
	C70.992607,83.196442 71.056656,82.238663 71.229111,80.810898 
z"/>
<path fill="#00288A" opacity="1.000000" stroke="none" 
	d="
M39.513195,88.377182 
	C39.797398,96.577698 39.834991,105.104698 39.474503,113.814835 
	C39.139809,105.566536 39.203197,97.135101 39.513195,88.377182 
z"/>
<path fill="#F9F8FA" opacity="1.000000" stroke="none" 
	d="
M116.227432,116.977898 
	C115.991615,117.266022 115.755798,117.554146 114.914566,117.927811 
	C113.839149,118.060448 113.369148,118.107536 112.507858,118.281555 
	C107.316383,118.688988 102.516190,118.969475 97.738899,118.820412 
	C98.345131,116.056343 98.928467,113.721825 99.511803,111.387314 
	C97.009735,110.792839 94.507668,110.198357 92.005600,109.603882 
	C91.814674,109.975151 91.623749,110.346420 91.432816,110.717690 
	C93.548027,113.535568 95.663239,116.353447 98.032867,119.393730 
	C99.952248,121.621979 101.617218,123.627831 103.282181,125.633682 
	C102.727097,126.102264 102.172020,126.570847 101.340767,127.083511 
	C96.887520,121.804070 92.710449,116.480545 87.881424,110.326126 
	C87.881424,113.285759 87.881424,115.388702 87.881424,117.763466 
	C85.219772,117.970001 82.245758,118.200775 79.770012,118.392883 
	C81.198898,114.491745 82.707108,110.374077 84.168396,105.499359 
	C85.054550,101.836105 85.987625,98.929893 87.095032,95.685616 
	C87.668312,91.721306 88.067268,88.095055 88.506088,84.106461 
	C90.287422,84.106461 93.480988,84.422272 96.586456,84.033813 
	C101.472038,83.422676 104.823380,84.752693 106.014664,90.240189 
	C107.090851,93.404587 108.168549,96.188110 109.272881,99.330124 
	C111.608818,105.451714 113.918129,111.214806 116.227432,116.977898 
M90.220665,101.907990 
	C90.098816,102.817085 89.976967,103.726181 89.800369,105.043762 
	C92.225395,104.389412 94.122574,103.877502 96.597908,103.209579 
	C95.344940,100.222519 94.261139,97.638779 92.741608,94.016251 
	C91.770821,97.215950 91.169556,99.197723 90.220665,101.907990 
z"/>
<path fill="#F53E27" opacity="1.000000" stroke="none" 
	d="
M86.920700,96.023682 
	C85.987625,98.929893 85.054550,101.836105 84.151436,105.065582 
	C79.433357,106.557320 74.685310,107.725777 69.550674,108.902847 
	C69.110512,106.713066 69.056931,104.514687 69.089386,101.925995 
	C72.582085,100.463203 75.988747,99.390724 79.705368,98.111511 
	C80.645866,97.827248 81.276398,97.749710 82.454277,97.374481 
	C84.307983,96.725754 85.614334,96.374718 86.920700,96.023682 
z"/>
<path fill="#F43D26" opacity="1.000000" stroke="none" 
	d="
M46.807686,115.825859 
	C45.988750,114.676323 45.466591,113.266281 45.370621,111.463562 
	C47.837772,110.316307 49.878731,109.561745 51.919689,108.807190 
	C52.664436,109.960144 53.409187,111.113098 54.254990,112.598274 
	C51.938847,113.808784 49.521656,114.687073 46.807686,115.825859 
z"/>
<path fill="#143F91" opacity="1.000000" stroke="none" 
	d="
M148.821243,96.078506 
	C144.130219,93.304070 149.762787,90.313042 148.647842,86.983566 
	C157.669296,82.739662 166.543716,78.839233 175.418137,74.938805 
	C175.684906,75.329407 175.951675,75.720001 176.218445,76.110603 
	C167.190674,82.696808 158.162903,89.283020 148.821243,96.078506 
z"/>
<path fill="#0F3E91" opacity="1.000000" stroke="none" 
	d="
M116.539078,116.868828 
	C113.918129,111.214806 111.608818,105.451714 109.648575,99.296036 
	C113.987976,97.922310 117.978317,96.941170 121.968651,95.960037 
	C123.028702,101.417030 126.895599,104.091011 132.080551,105.956253 
	C127.237396,109.658020 122.044060,113.208893 116.539078,116.868828 
z"/>
<path fill="#133D91" opacity="1.000000" stroke="none" 
	d="
M145.217209,98.341316 
	C140.973846,96.845955 137.046310,95.191978 133.124557,93.540436 
	C134.677032,89.820045 140.617661,88.562782 142.775482,91.236771 
	C144.220932,93.027985 145.319809,95.098862 146.699524,97.328400 
	C146.394531,97.802376 145.963776,97.992531 145.217209,98.341316 
z"/>
<path fill="#113E91" opacity="1.000000" stroke="none" 
	d="
M103.610603,125.489395 
	C101.617218,123.627831 99.952248,121.621979 98.010994,119.408417 
	C97.734703,119.200706 97.715996,119.249969 97.715996,119.249969 
	C102.516190,118.969475 107.316383,118.688988 112.520798,118.502579 
	C112.925026,118.596672 113.099609,119.003593 113.099609,119.003586 
	C110.046082,121.117424 106.992554,123.231262 103.610603,125.489395 
z"/>
<path fill="#194293" opacity="1.000000" stroke="none" 
	d="
M137.670166,107.937859 
	C138.840912,108.978981 139.679657,110.116539 140.518387,111.254089 
	C139.192490,112.097626 137.958267,113.370598 136.517914,113.678123 
	C134.635056,114.080124 132.589172,113.718536 130.250153,113.408066 
	C132.370636,111.431877 134.854385,109.733086 137.670166,107.937859 
z"/>
<path fill="#F23D26" opacity="1.000000" stroke="none" 
	d="
M148.013184,100.149757 
	C148.231384,99.890755 148.405426,99.951225 148.849945,99.951416 
	C149.109833,100.361694 149.099274,100.832260 148.961487,101.507828 
	C148.834259,101.712845 148.400757,101.778076 148.400757,101.778076 
	C148.400757,101.778076 148.057831,101.504578 147.961746,101.305244 
	C147.900131,100.893677 147.934586,100.681450 148.013184,100.149757 
z"/>
<path fill="#F23D26" opacity="1.000000" stroke="none" 
	d="
M113.380646,118.987869 
	C113.099609,119.003593 112.925026,118.596672 112.912079,118.375641 
	C113.369148,118.107536 113.839149,118.060448 114.662926,118.059509 
	C114.565018,118.394485 114.113350,118.683319 113.380646,118.987869 
z"/>
<path fill="#123F93" opacity="1.000000" stroke="none" 
	d="
M172.944931,103.086823 
	C173.260315,104.074547 173.460541,104.690666 173.766907,105.633331 
	C171.118561,105.633331 168.624374,105.633331 165.615097,105.633331 
	C166.732071,101.933640 167.799896,98.396729 169.148422,93.930092 
	C170.636673,97.481636 171.733231,100.098427 172.944931,103.086823 
z"/>
<path fill="#103E92" opacity="1.000000" stroke="none" 
	d="
M51.836224,108.483978 
	C49.878731,109.561745 47.837772,110.316307 45.434898,111.119987 
	C45.364765,107.785919 43.573360,104.062347 47.010502,100.369446 
	C48.758106,103.240685 50.255432,105.700722 51.836224,108.483978 
z"/>
<path fill="#0D3E91" opacity="1.000000" stroke="none" 
	d="
M87.095032,95.685616 
	C85.614334,96.374718 84.307983,96.725754 82.667229,97.130363 
	C78.373871,87.253700 73.726654,77.527512 70.700722,67.320671 
	C68.721428,60.644268 68.301125,53.135616 74.541931,46.961662 
	C75.421936,46.478386 75.693283,46.193363 75.964630,45.908340 
	C75.964630,45.908344 75.978043,45.988140 76.362976,45.982353 
	C79.883003,45.519840 83.018105,45.063110 86.153206,44.606384 
	C86.575294,44.673470 86.997391,44.740555 87.951477,45.190720 
	C89.163567,45.665470 89.843666,45.757149 90.523766,45.848827 
	C90.523766,45.848827 90.799561,45.781300 91.109116,46.148224 
	C92.069710,46.632381 92.720741,46.749611 93.371773,46.866840 
	C93.371773,46.866840 93.724937,46.858082 94.041550,47.195934 
	C94.908516,47.686855 95.458885,47.839924 96.009247,47.992996 
	C96.009247,47.992996 96.000305,48.000305 96.168808,48.244034 
	C96.896782,48.655022 97.456238,48.822277 98.015701,48.989529 
	C98.015701,48.989529 98.001694,49.001266 98.194214,49.243465 
	C98.781174,49.607796 99.175613,49.729927 99.570053,49.852058 
	C100.849907,50.503841 102.129761,51.155628 103.717850,51.860371 
	C113.908958,61.024868 123.791847,70.136406 133.423691,79.658104 
	C124.120491,83.331940 115.068329,86.595627 106.016174,89.859314 
	C104.823380,84.752693 101.472038,83.422676 96.586456,84.033813 
	C93.480988,84.422272 90.287422,84.106461 88.506088,84.106461 
	C88.067268,88.095055 87.668312,91.721306 87.095032,95.685616 
z"/>
<path fill="#F83E25" opacity="1.000000" stroke="none" 
	d="
M106.014664,90.240189 
	C115.068329,86.595627 124.120491,83.331940 133.526733,79.965683 
	C134.418365,81.022598 134.955917,82.182098 135.555679,83.475784 
	C125.513138,85.697495 123.255913,87.742012 122.026489,95.578789 
	C117.978317,96.941170 113.987976,97.922310 109.621948,98.937531 
	C108.168549,96.188110 107.090851,93.404587 106.014664,90.240189 
z"/>
<path fill="#0F3B92" opacity="1.000000" stroke="none" 
	d="
M85.813202,44.415554 
	C83.018105,45.063110 79.883003,45.519840 76.330383,45.958374 
	C79.099648,45.368362 82.286430,44.796543 85.813202,44.415554 
z"/>
<path fill="#0F3B92" opacity="1.000000" stroke="none" 
	d="
M90.293716,45.582497 
	C89.843666,45.757149 89.163567,45.665470 88.247711,45.317688 
	C88.695862,45.146446 89.379761,45.231304 90.293716,45.582497 
z"/>
<path fill="#0F3B92" opacity="1.000000" stroke="none" 
	d="
M97.826469,48.764160 
	C97.456238,48.822277 96.896782,48.655022 96.170807,48.239609 
	C96.548615,48.173897 97.092926,48.356342 97.826469,48.764160 
z"/>
<path fill="#0F3B92" opacity="1.000000" stroke="none" 
	d="
M95.812958,47.780357 
	C95.458885,47.839924 94.908516,47.686855 94.184708,47.299393 
	C94.546402,47.232574 95.081535,47.400146 95.812958,47.780357 
z"/>
<path fill="#0F3B92" opacity="1.000000" stroke="none" 
	d="
M93.167770,46.596840 
	C92.720741,46.749611 92.069710,46.632381 91.207108,46.250961 
	C91.651611,46.100124 92.307693,46.213478 93.167770,46.596840 
z"/>
<path fill="#0F3B92" opacity="1.000000" stroke="none" 
	d="
M99.386444,49.593208 
	C99.175613,49.729927 98.781174,49.607796 98.196457,49.235817 
	C98.405067,49.102100 98.803947,49.218227 99.386444,49.593208 
z"/>
<path fill="#0F3B92" opacity="1.000000" stroke="none" 
	d="
M75.670074,45.969467 
	C75.693283,46.193363 75.421936,46.478386 74.851669,46.817245 
	C74.827003,46.590919 75.101265,46.310757 75.670074,45.969467 
z"/>
<path fill="#174294" opacity="1.000000" stroke="none" 
	d="
M97.756577,119.186020 
	C95.663239,116.353447 93.548027,113.535568 91.432816,110.717690 
	C91.623749,110.346420 91.814674,109.975151 92.005600,109.603882 
	C94.507668,110.198357 97.009735,110.792839 99.511803,111.387314 
	C98.928467,113.721825 98.345131,116.056343 97.738899,118.820412 
	C97.715996,119.249969 97.734703,119.200706 97.756577,119.186020 
z"/>
<path fill="#EF402D" opacity="1.000000" stroke="none" 
	d="
M90.394470,101.543739 
	C91.169556,99.197723 91.770821,97.215950 92.741608,94.016251 
	C94.261139,97.638779 95.344940,100.222519 96.597908,103.209579 
	C94.122574,103.877502 92.225395,104.389412 89.800369,105.043762 
	C89.976967,103.726181 90.098816,102.817085 90.394470,101.543739 
z"/>
</svg>