<svg version="1.1" id="Layer_1" xmlns="http://www.w3.org/2000/svg" xmlns:xlink="http://www.w3.org/1999/xlink" x="0px" y="0px"
	 width="100%" viewBox="0 0 225 225" enable-background="new 0 0 225 225" xml:space="preserve">
<path fill="#FEFEFE" opacity="1.000000" stroke="none" 
	d="
M132.000000,226.000000 
	C89.166672,226.000000 46.833225,225.960831 4.500250,226.083649 
	C1.516990,226.092300 0.913465,225.482300 0.917785,222.499893 
	C1.023049,149.833374 1.023048,77.166656 0.917792,4.500140 
	C0.913473,1.517828 1.517666,0.913462 4.500098,0.917783 
	C77.166611,1.023050 149.833344,1.023045 222.499847,0.917795 
	C225.482132,0.913476 226.086548,1.517622 226.082230,4.500084 
	C225.976959,77.166595 225.976959,149.833328 226.082199,222.499832 
	C226.086517,225.482071 225.484177,226.098831 222.499649,226.084961 
	C192.500290,225.945358 162.500015,226.000000 132.000000,226.000000 
z"/>
<path fill="#8590A6" opacity="1.000000" stroke="none" 
	d="
M101.546707,105.322311 
	C101.102127,91.989937 101.048721,78.945007 101.066055,65.434097 
	C102.861748,63.489380 104.738228,63.570183 107.064224,64.748428 
	C108.121193,66.062866 108.337250,67.199577 108.335800,68.365891 
	C108.321632,79.756081 108.727104,91.149132 107.967270,102.998474 
	C106.404236,105.676414 104.433311,106.360619 101.546707,105.322311 
z"/>
<path fill="#8590A6" opacity="1.000000" stroke="none" 
	d="
M101.465858,145.316025 
	C101.049873,132.310593 101.023750,119.603523 101.074196,106.431152 
	C102.311554,105.249474 103.562096,105.548508 105.174797,105.923599 
	C106.941528,108.112846 108.036247,110.286674 108.108337,112.567993 
	C108.441597,123.114403 108.924469,133.671890 107.608635,144.628754 
	C105.654449,146.463867 103.799835,146.473877 101.465858,145.316025 
z"/>
<path fill="#D6DADE" opacity="1.000000" stroke="none" 
	d="
M125.658905,61.875420 
	C126.023064,90.875397 126.026176,119.729553 126.039085,148.583710 
	C126.042046,155.201111 125.649590,161.837219 126.848946,168.844025 
	C125.933846,170.817963 127.337212,172.672974 125.693108,174.293823 
	C121.426376,172.890488 121.882896,169.373947 122.127350,166.431366 
	C122.651756,160.119125 122.384003,153.816467 122.537987,147.077698 
	C122.565178,146.357010 122.569328,146.070358 122.571053,145.357208 
	C122.170326,132.736053 123.380547,120.511307 121.883896,108.333420 
	C121.788284,107.555473 122.349960,106.760490 122.324738,105.505066 
	C122.313805,104.811157 122.329605,104.532990 122.422142,103.844345 
	C123.927979,93.840439 123.949203,84.208138 123.101379,74.575905 
	C122.882385,72.087837 122.532455,69.619965 122.666664,66.708130 
	C122.728889,66.033295 122.766777,65.766113 122.898453,65.107910 
	C123.233910,63.954098 123.597992,63.253323 124.328453,62.321342 
	C124.829796,61.935886 125.065613,61.832745 125.658905,61.875420 
z"/>
<path fill="#83A7CB" opacity="1.000000" stroke="none" 
	d="
M117.435638,16.759649 
	C117.529831,17.495178 117.648903,17.925205 117.782860,18.690887 
	C118.450821,21.780416 117.226196,24.422613 117.318100,27.518764 
	C117.328224,28.654507 117.341949,29.414249 117.403999,30.563023 
	C117.500648,31.758570 117.790771,32.513294 118.070938,33.704697 
	C118.732384,41.407269 118.261894,48.710613 118.408546,56.449562 
	C118.321251,57.487640 118.220062,58.074776 117.916107,59.076004 
	C117.582520,59.744003 117.409576,59.990669 116.855347,60.480881 
	C114.982536,61.286728 113.529579,61.229397 111.804962,60.141094 
	C110.025459,56.348896 110.449768,52.743385 111.070457,49.225246 
	C111.762543,45.302433 111.853333,41.454510 110.890755,37.158142 
	C110.742249,35.892487 110.773758,35.051517 110.939346,33.808151 
	C111.770149,31.326620 111.661072,29.257040 110.867981,26.787601 
	C111.040833,21.933771 110.474922,17.319017 113.767647,13.158160 
	C115.631866,13.124587 116.342522,14.187296 116.843353,15.857330 
	C117.093674,16.274035 117.277100,16.364092 117.435638,16.759649 
z"/>
<path fill="#8590A6" opacity="1.000000" stroke="none" 
	d="
M100.893295,169.315369 
	C100.887184,161.596741 100.925446,154.257492 101.009674,146.452759 
	C102.751434,145.089432 104.567307,145.665344 106.747604,145.701828 
	C108.262344,151.038788 108.400337,156.304504 108.386826,161.584412 
	C108.374458,166.417084 108.367798,171.249893 108.403221,176.521530 
	C108.380898,178.959198 108.492874,180.967209 108.265152,182.953583 
	C108.048363,184.844574 107.662796,186.710861 104.638687,186.181488 
	C101.575264,183.933548 100.269402,181.405106 101.257874,177.897263 
	C102.026062,175.171158 100.425934,172.458527 100.893295,169.315369 
z"/>
<path fill="#8C96AD" opacity="1.000000" stroke="none" 
	d="
M101.288864,214.574951 
	C100.321922,214.885269 99.586601,214.905807 98.488235,214.862579 
	C97.422646,214.214066 97.106461,213.438461 97.012856,212.124084 
	C98.032234,208.434326 97.265488,204.985504 98.188217,201.304214 
	C100.415794,197.905487 99.361191,194.476822 99.638336,191.226059 
	C99.836853,188.897446 99.802689,186.176239 103.129723,186.260345 
	C106.101898,186.335464 106.225090,188.879517 106.312042,191.028732 
	C106.479584,195.169495 106.899979,199.398544 105.176819,203.318954 
	C104.653030,204.510666 105.450912,205.152328 105.414825,206.439697 
	C102.247505,208.365005 102.511223,211.647720 101.288864,214.574951 
z"/>
<path fill="#A9B2C4" opacity="1.000000" stroke="none" 
	d="
M99.228226,200.705261 
	C98.657555,204.417374 99.697365,207.911743 98.157623,211.625641 
	C97.789032,212.116943 97.584045,212.232239 97.064377,212.191254 
	C95.191299,208.880280 97.098228,204.732620 93.576797,201.940964 
	C90.501389,198.895782 88.294983,203.075211 85.477066,202.179031 
	C85.229301,200.139328 85.214706,198.342957 85.385590,196.212677 
	C87.484482,194.317261 90.112282,195.175583 92.312302,193.652710 
	C92.910583,192.215607 93.309013,191.064651 94.467491,189.918518 
	C95.011627,189.608719 95.255363,189.532730 95.883209,189.479462 
	C97.049095,189.769760 97.524979,190.342743 97.951935,191.438782 
	C98.374687,193.470093 98.183647,195.277847 99.572456,197.041046 
	C99.975937,198.420746 100.008919,199.434296 99.228226,200.705261 
z"/>
<path fill="#B9C2D2" opacity="1.000000" stroke="none" 
	d="
M85.162811,202.371948 
	C85.993645,201.764252 87.285309,201.772751 87.411072,201.394073 
	C89.042641,196.481049 91.176323,198.852875 93.656883,200.939880 
	C96.010162,203.775848 90.589806,203.601730 91.962296,205.980392 
	C92.922943,207.645309 94.847092,208.709778 95.033623,210.889343 
	C95.133385,212.054886 95.134209,213.186584 94.210999,214.453781 
	C87.091087,214.701157 84.932495,211.809814 85.162811,202.371948 
z"/>
<path fill="#B4DCF2" opacity="1.000000" stroke="none" 
	d="
M117.268387,58.254932 
	C116.967834,49.980625 116.940704,41.959457 116.902802,33.469963 
	C118.120857,31.741703 119.550644,31.764738 121.412781,32.640015 
	C122.468590,36.036697 123.179718,39.140907 123.910797,42.641998 
	C123.745094,43.174801 123.559441,43.310719 123.038628,43.509262 
	C119.695557,43.469265 120.273468,45.607025 120.545456,47.285648 
	C121.118164,50.820198 121.620995,54.333466 120.784363,58.235924 
	C120.495392,58.758823 120.343384,58.948925 119.847046,59.270866 
	C118.708946,59.411636 118.082672,59.053455 117.268387,58.254932 
z"/>
<path fill="#B9C2D2" opacity="1.000000" stroke="none" 
	d="
M140.936798,203.887558 
	C142.791107,207.680267 142.292053,210.649048 138.405197,212.905060 
	C132.340317,213.278458 131.221497,212.000000 133.594147,207.314407 
	C135.897766,202.765076 131.225433,204.914505 129.989777,203.306000 
	C128.847092,201.209915 129.628769,199.493576 130.361023,197.419800 
	C130.958572,196.711075 131.419739,196.496658 132.329865,196.500763 
	C132.913239,196.683273 133.123230,196.811539 133.567200,197.215225 
	C135.380615,200.344879 139.295090,200.598389 140.936798,203.887558 
z"/>
<path fill="#5B687F" opacity="1.000000" stroke="none" 
	d="
M101.472427,214.938828 
	C101.913651,212.171143 98.295212,207.720398 104.565933,206.976044 
	C105.204216,206.865158 105.426247,206.767593 105.950745,206.870041 
	C106.750000,210.359177 108.676682,211.750549 111.977997,211.714493 
	C115.722328,211.673569 119.470863,211.663376 123.587860,211.793304 
	C124.463928,211.905609 124.948265,212.054184 125.734573,212.491974 
	C126.368324,213.169312 126.479736,213.666840 126.128113,214.504166 
	C117.871887,214.870392 109.879745,214.941650 101.472427,214.938828 
z"/>
<path fill="#7A89A1" opacity="1.000000" stroke="none" 
	d="
M113.722870,12.833811 
	C112.569267,17.166046 112.333458,21.644485 111.995178,26.541275 
	C111.747765,27.311136 111.588539,27.682718 111.336639,28.346939 
	C110.301636,29.540403 110.060242,30.793898 109.307678,32.147507 
	C108.389099,32.990681 107.574020,33.303783 106.326836,33.141418 
	C106.855133,27.117256 108.580269,21.469549 110.558060,15.877278 
	C111.089294,14.375206 111.686729,13.158839 113.722870,12.833811 
z"/>
<path fill="#BBE7FC" opacity="1.000000" stroke="none" 
	d="
M120.157410,59.520912 
	C120.616409,54.026470 119.060204,49.001347 119.039627,43.893848 
	C119.028091,41.029018 120.001831,39.803165 122.670685,42.781143 
	C124.041458,44.393105 123.149750,46.076744 123.856987,47.875340 
	C124.099884,48.186127 124.118668,48.411877 124.074265,48.516075 
	C124.677498,49.744564 124.345268,51.047947 124.724701,52.580948 
	C124.672592,54.197266 123.386665,55.339478 124.513229,57.038651 
	C124.759155,57.845718 124.778526,58.330769 124.603745,59.183990 
	C123.222244,61.130707 121.836937,61.028496 120.157410,59.520912 
z"/>
<path fill="#C2CAD7" opacity="1.000000" stroke="none" 
	d="
M129.712708,203.360260 
	C131.347931,203.013367 132.651184,202.981842 133.952820,203.014786 
	C134.898529,203.038757 136.001144,202.818192 136.579071,203.839218 
	C137.294418,205.103027 136.493439,206.082718 135.629807,206.814163 
	C131.610382,210.218369 132.937012,211.943878 137.757416,212.920853 
	C136.214828,216.053879 133.269699,214.647827 130.296539,214.791916 
	C127.698364,211.137436 128.298462,207.431198 129.712708,203.360260 
z"/>
<path fill="#8C96AD" opacity="1.000000" stroke="none" 
	d="
M100.609375,169.192932 
	C101.894943,171.996445 103.611504,174.875961 102.183350,178.394150 
	C101.307587,180.551529 102.310265,182.579620 103.923759,184.612900 
	C100.116325,185.367783 100.116325,185.367783 100.295387,180.001709 
	C100.266968,179.335648 99.338356,180.251297 99.945862,179.976746 
	C100.219368,179.853134 100.404396,179.963715 100.333611,180.269806 
	C99.604965,183.420425 101.298271,187.355469 96.977554,189.438950 
	C96.353790,189.291168 96.120712,189.177124 95.643150,188.762512 
	C93.908142,184.334946 97.149857,181.332611 97.968079,177.374298 
	C98.784264,174.483185 99.577042,171.966522 100.609375,169.192932 
z"/>
<path fill="#C2CAD7" opacity="1.000000" stroke="none" 
	d="
M94.297424,214.771423 
	C93.947456,211.968323 94.711922,209.024536 91.255775,207.492203 
	C90.095589,206.977859 88.962723,205.876892 89.216339,204.389084 
	C89.529869,202.549774 91.294937,203.284775 92.432266,202.874710 
	C92.975685,202.678772 93.387230,202.117035 93.926041,201.354767 
	C95.668503,199.561447 95.692123,200.932968 96.052063,202.106277 
	C96.970909,205.101364 97.758438,208.085464 96.977127,211.623901 
	C96.966209,212.815826 96.972664,213.630112 96.249634,214.544647 
	C95.568108,214.787537 95.103668,214.818024 94.297424,214.771423 
z"/>
<path fill="#A4ADBE" opacity="1.000000" stroke="none" 
	d="
M130.069916,202.635178 
	C130.014450,206.629837 129.983536,210.242447 129.914398,214.286804 
	C128.803802,214.799179 127.731430,214.879791 126.261536,214.879776 
	C125.949638,214.367798 126.035248,213.936447 126.125366,213.175171 
	C124.917671,211.912384 125.564636,210.698044 125.669632,209.216278 
	C125.756416,208.384689 125.818657,207.909378 125.943115,207.073364 
	C126.044510,206.470612 126.092812,206.229721 126.231766,205.629913 
	C127.174095,202.392075 127.850090,199.486313 127.655060,196.057785 
	C127.688805,194.038239 127.727844,192.408554 129.113647,190.780670 
	C129.959839,190.324707 130.496155,190.252060 131.434814,190.451752 
	C132.253052,190.940247 132.532684,191.387177 132.685593,192.329437 
	C132.537659,194.027573 132.285706,195.304245 131.245789,196.698685 
	C131.173019,198.830444 130.720276,200.556656 130.069916,202.635178 
z"/>
<path fill="#A4ADBE" opacity="1.000000" stroke="none" 
	d="
M133.283493,198.214233 
	C133.017792,197.991974 133.006073,197.496643 133.002426,197.248932 
	C132.232727,196.167496 131.996078,195.190826 132.356537,193.737228 
	C133.629669,191.574738 135.905426,191.495331 137.697021,190.033401 
	C143.054459,191.648438 141.287277,195.759171 141.258148,199.648590 
	C138.265488,201.390869 136.315689,197.970413 133.283493,198.214233 
z"/>
<path fill="#A7CEE5" opacity="1.000000" stroke="none" 
	d="
M121.803322,32.538368 
	C120.411499,32.954681 119.065529,32.976875 117.305801,33.000355 
	C116.619049,32.517372 116.346069,32.033104 116.089180,31.254044 
	C116.896805,30.219854 117.443832,29.444908 116.257187,28.233181 
	C115.498192,25.057261 116.787239,22.373930 117.557831,19.301350 
	C120.350327,23.027838 120.941147,27.635027 121.803322,32.538368 
z"/>
<path fill="#A4ADBE" opacity="1.000000" stroke="none" 
	d="
M127.848122,176.045837 
	C130.474533,179.251999 132.770264,182.728668 135.130692,186.552734 
	C134.728668,187.984177 133.704620,188.467834 132.528137,189.264465 
	C131.806808,189.577881 131.365250,189.643738 130.581390,189.555481 
	C130.061905,189.345917 129.873108,189.218018 129.490601,188.807617 
	C128.813339,187.239639 128.262558,185.988861 127.268265,184.553406 
	C126.787308,183.234238 126.716812,182.212448 126.660400,180.779083 
	C126.672928,178.962692 126.706726,177.556320 127.848122,176.045837 
z"/>
<path fill="#687CA0" opacity="1.000000" stroke="none" 
	d="
M101.376480,57.423016 
	C101.310287,56.518372 101.354675,55.990646 101.571121,55.102448 
	C101.575539,54.338047 101.535339,53.919960 101.800354,53.235004 
	C102.034607,51.866508 102.072632,50.752789 102.352798,49.297325 
	C103.201935,47.785297 103.673340,46.451721 105.760033,46.816681 
	C108.177986,50.727268 107.662109,54.461189 105.931404,58.536190 
	C105.079048,59.494762 104.322556,59.756668 103.072220,59.721825 
	C101.801331,59.344688 101.545387,58.635418 101.376480,57.423016 
z"/>
<path fill="#98A3B6" opacity="1.000000" stroke="none" 
	d="
M95.743912,187.615845 
	C95.977371,188.101425 96.000656,188.286499 95.952896,188.956055 
	C95.881859,189.440536 95.461662,189.639282 95.282417,189.787247 
	C94.734024,191.046844 94.364876,192.158463 93.991547,193.627716 
	C92.309906,195.214737 90.789314,194.386368 88.953781,193.334839 
	C88.208817,192.252213 88.157143,191.437088 88.715027,190.235718 
	C88.931709,189.872833 89.061523,189.487549 89.147293,189.303223 
	C89.874695,188.146378 90.678841,187.319199 91.802460,186.316940 
	C92.066498,186.092255 92.036949,186.007126 92.065399,186.042175 
	C93.900948,184.654907 94.676544,186.098480 95.743912,187.615845 
z"/>
<path fill="#98A3B6" opacity="1.000000" stroke="none" 
	d="
M131.779968,189.308960 
	C132.486679,187.889343 133.277267,187.164368 134.855072,186.951080 
	C136.574188,187.166336 137.037842,188.400848 137.910217,189.621368 
	C137.850433,192.631119 136.036148,193.126205 133.387085,192.999878 
	C132.834610,193.123459 132.666885,193.248734 132.265656,193.164108 
	C132.025940,192.520477 132.019745,192.086746 132.007812,191.327759 
	C131.620651,190.616348 131.472855,190.155334 131.779968,189.308960 
z"/>
<path fill="#A9B2C4" opacity="1.000000" stroke="none" 
	d="
M133.024292,198.383423 
	C136.254715,195.778244 138.139420,198.709579 140.842407,199.998901 
	C141.225357,201.127884 141.234406,202.208130 141.217911,203.697784 
	C138.119293,202.869385 135.081467,201.577591 133.024292,198.383423 
z"/>
<path fill="#B9C2D2" opacity="1.000000" stroke="none" 
	d="
M95.961563,187.529755 
	C94.877411,187.307266 93.800743,186.698196 92.408966,186.083176 
	C93.871208,183.170166 95.648575,180.263092 97.708710,177.177933 
	C99.808105,180.877579 95.639404,183.561935 95.961563,187.529755 
z"/>
<path fill="#8C96AD" opacity="1.000000" stroke="none" 
	d="
M101.427994,64.233124 
	C101.078781,63.569668 101.038773,63.102062 101.059692,62.286453 
	C103.331154,60.308662 105.911942,60.115105 108.875183,60.110229 
	C110.748787,60.644779 111.218994,62.681988 113.352844,62.742134 
	C114.353958,62.837238 115.021347,62.929947 116.010010,63.188446 
	C116.533440,63.431187 116.727699,63.561222 117.081711,64.005760 
	C117.172371,64.546539 117.103271,64.772827 116.777863,65.247223 
	C115.665627,65.989983 114.712761,66.074463 113.398163,66.167397 
	C112.073288,66.198509 111.113113,66.124275 109.795502,65.940933 
	C109.202194,65.801369 108.969040,65.727303 108.411140,65.483253 
	C106.147713,63.742504 103.838333,64.833382 101.427994,64.233124 
z"/>
<path fill="#5B687F" opacity="1.000000" stroke="none" 
	d="
M110.326126,61.362694 
	C107.353027,61.433544 104.648079,61.695152 101.531883,61.947605 
	C101.064735,61.212135 101.008842,60.485813 101.046844,59.404297 
	C101.273293,58.855179 101.405853,58.661263 101.769341,58.733475 
	C102.742279,59.012943 103.484299,59.026283 104.597397,59.040512 
	C106.412567,58.671131 107.878716,58.731613 109.714798,58.859230 
	C110.570061,59.012222 111.025162,59.199726 111.754730,59.674110 
	C113.419739,59.922760 114.778725,59.961094 116.545166,60.024338 
	C117.291985,60.358768 117.472626,60.746517 117.447075,61.527092 
	C117.232986,62.027870 117.091537,62.201630 116.651047,62.530663 
	C115.692741,62.877110 115.024780,62.875164 114.025665,62.711945 
	C112.643806,62.340355 111.551788,62.137722 110.326126,61.362694 
z"/>
<path fill="#98A3B6" opacity="1.000000" stroke="none" 
	d="
M117.188492,62.151913 
	C116.909500,61.398235 116.946220,61.013332 116.967773,60.338837 
	C116.952606,60.049244 117.057014,59.902973 117.111404,59.831451 
	C117.527794,59.488899 117.927254,59.295078 118.700287,59.187500 
	C119.036423,59.196636 119.490990,59.198772 119.717384,59.191071 
	C121.166466,59.554863 122.364571,60.233150 123.909996,59.261051 
	C124.479012,58.667416 124.899902,58.520584 125.672958,58.790840 
	C126.061241,59.864517 126.170883,60.716759 126.148468,61.795120 
	C125.834145,62.062775 125.651894,62.104309 125.194427,62.199398 
	C122.493011,63.601402 120.023247,63.743557 117.188492,62.151913 
z"/>
<path fill="#A4ADBE" opacity="1.000000" stroke="none" 
	d="
M88.653999,192.765564 
	C90.413124,193.306107 91.835663,193.612213 93.622795,193.951843 
	C92.345718,197.853821 88.989349,195.211655 86.047325,195.914932 
	C85.660439,195.154587 85.749809,194.430405 85.938858,193.354858 
	C86.709808,192.419815 87.471542,192.272507 88.653999,192.765564 
z"/>
<path fill="#6C7A91" opacity="1.000000" stroke="none" 
	d="
M105.249557,46.716576 
	C104.364632,47.604015 103.733223,48.213947 102.848373,48.889732 
	C103.349976,45.214748 104.105019,41.473911 104.992699,37.372719 
	C105.351494,36.924545 105.577660,36.836727 106.094620,36.969345 
	C106.772987,37.841595 106.873238,38.554905 106.791763,39.657917 
	C106.546494,40.956051 106.276375,41.882511 106.277542,43.221695 
	C106.200409,44.589283 106.058128,45.569515 105.249557,46.716576 
z"/>
<path fill="#A9B2C4" opacity="1.000000" stroke="none" 
	d="
M125.989960,58.583366 
	C125.548660,59.014812 125.145737,59.017353 124.442825,59.029797 
	C124.104744,58.588211 124.066635,58.136723 124.004395,57.346588 
	C123.421425,56.316975 123.249962,55.547161 123.726608,54.336895 
	C123.962158,52.501617 123.979530,51.019283 124.013382,49.078613 
	C125.892914,51.547455 126.030655,54.836273 125.989960,58.583366 
z"/>
<path fill="#687CA0" opacity="1.000000" stroke="none" 
	d="
M106.462021,37.246662 
	C106.035469,37.005436 105.580360,37.005482 105.352844,37.008919 
	C105.110260,36.219688 105.095184,35.427017 105.267227,34.283287 
	C105.505013,33.754539 105.555672,33.576855 105.808517,33.209625 
	C106.010712,33.020081 105.999046,33.006718 106.006805,33.006432 
	C106.794472,32.685074 107.574387,32.363998 108.671753,32.020073 
	C110.472244,34.662712 111.190598,37.035652 106.462021,37.246662 
z"/>
<path fill="#8590A6" opacity="1.000000" stroke="none" 
	d="
M128.142944,175.490341 
	C128.127228,177.224030 128.075653,178.672729 128.022003,180.554001 
	C127.569839,181.589081 127.158257,182.244812 125.954681,182.045029 
	C124.703842,180.503372 124.801636,178.975632 124.861679,177.087234 
	C124.953888,176.469284 125.010300,176.225571 125.215454,175.638229 
	C125.801537,174.667816 126.407104,174.248734 127.431969,174.004868 
	C127.894211,174.469574 128.000641,174.837448 128.142944,175.490341 
z"/>
<path fill="#6C7A91" opacity="1.000000" stroke="none" 
	d="
M105.283081,106.235588 
	C103.972786,105.992867 102.946182,105.985435 101.535172,105.971924 
	C101.150772,105.965843 101.044334,105.499825 101.099930,105.267349 
	C102.942146,105.186226 104.614716,104.725494 106.625076,104.040421 
	C107.326385,103.650208 107.734543,103.479088 108.543358,103.554108 
	C109.039986,103.826584 109.201118,103.998482 109.443069,104.517342 
	C109.477699,105.353233 109.295418,105.787903 108.701523,106.389992 
	C107.437943,106.978905 106.489738,106.996872 105.283081,106.235588 
z"/>
<path fill="#6C7A91" opacity="1.000000" stroke="none" 
	d="
M101.071381,64.270988 
	C103.566093,64.168747 106.052071,63.537785 108.727539,64.704437 
	C108.597763,65.349068 108.137535,65.495483 107.302673,65.225334 
	C105.318741,65.003479 103.644691,64.994705 101.553719,64.977020 
	C101.136795,64.968109 101.023972,64.504700 101.071381,64.270988 
z"/>
<path fill="#A9B2C4" opacity="1.000000" stroke="none" 
	d="
M88.991791,192.609604 
	C88.252251,193.001724 87.513916,193.003464 86.407059,193.004349 
	C86.181465,191.549759 87.037315,190.634552 88.611786,189.946655 
	C88.952141,190.654953 88.972572,191.437088 88.991791,192.609604 
z"/>
<path fill="#6C7A91" opacity="1.000000" stroke="none" 
	d="
M107.258163,146.235657 
	C105.289940,146.025223 103.595589,146.022949 101.478439,146.003967 
	C101.015694,145.824783 100.975761,145.662277 101.005913,145.258728 
	C102.763298,145.008026 104.450592,144.998367 106.560593,144.979431 
	C107.327415,144.635513 107.741280,144.506180 108.517776,144.713501 
	C108.920616,145.081772 109.020271,145.288284 108.973038,145.806061 
	C108.431961,146.373505 108.002525,146.490021 107.258163,146.235657 
z"/>
<path fill="#9CA8BA" opacity="1.000000" stroke="none" 
	d="
M127.790451,173.744736 
	C127.338219,174.339508 126.888657,174.577332 126.197868,174.898575 
	C125.838165,174.856049 125.719696,174.730103 125.651123,174.349640 
	C125.902016,172.654419 126.103012,171.213730 126.550964,169.530014 
	C127.129654,170.653931 127.461395,172.020859 127.790451,173.744736 
z"/>
<path fill="#BDC5D2" opacity="1.000000" stroke="none" 
	d="
M91.728470,186.120712 
	C91.931793,187.516312 91.212898,188.493484 89.544357,189.050629 
	C89.075844,187.492386 89.927887,186.599030 91.728470,186.120712 
z"/>
<path fill="#B9C2D2" opacity="1.000000" stroke="none" 
	d="
M96.378052,214.823059 
	C96.182716,213.965744 96.332886,213.174423 96.729630,212.194122 
	C97.145859,212.005981 97.315521,212.006805 97.739609,212.004639 
	C98.015335,212.702255 98.036644,213.402863 98.091576,214.451172 
	C97.657982,214.828918 97.190765,214.858994 96.378052,214.823059 
z"/>
<path fill="#B9C2D2" opacity="1.000000" stroke="none" 
	d="
M124.109818,47.750671 
	C122.546410,47.023468 123.075119,45.325863 122.962448,43.393089 
	C122.954216,42.995255 123.443382,43.008942 123.687057,43.023911 
	C123.993744,44.464325 124.056747,45.889771 124.109818,47.750671 
z"/>
<path fill="#6986B1" opacity="1.000000" stroke="none" 
	d="
M101.872299,53.184639 
	C101.971008,53.431011 101.945435,53.881794 101.831512,54.537277 
	C101.744781,54.291000 101.746399,53.840023 101.872299,53.184639 
z"/>
<path fill="#6986B1" opacity="1.000000" stroke="none" 
	d="
M101.987610,58.726723 
	C102.000259,58.999599 101.570473,59.023838 101.355606,59.036469 
	C101.113564,58.597809 101.086395,58.146526 101.162567,57.370667 
	C101.502258,57.515347 101.738617,57.984596 101.987610,58.726723 
z"/>
<path fill="#7A89A1" opacity="1.000000" stroke="none" 
	d="
M105.873535,33.142998 
	C105.995842,33.277145 105.905769,33.504368 105.597427,33.816990 
	C105.478294,33.680485 105.572296,33.458382 105.873535,33.142998 
z"/>
<path fill="#A7CEE5" opacity="1.000000" stroke="none" 
	d="
M117.462296,16.869236 
	C117.233879,16.913006 117.098976,16.729925 116.958145,16.349941 
	C117.212875,16.222326 117.414070,16.385443 117.462296,16.869236 
z"/>
<path fill="#7A89A1" opacity="1.000000" stroke="none" 
	d="
M106.994247,65.479645 
	C107.437416,65.007332 107.882050,65.002419 108.659958,64.998322 
	C108.993248,64.999130 109.080078,65.020973 109.121559,65.037811 
	C110.207359,66.241974 110.487717,67.694412 110.526489,69.199509 
	C110.794182,79.592354 110.451691,89.984650 110.466377,100.377487 
	C110.467773,101.368256 110.168907,102.332115 109.364258,103.593742 
	C108.582787,103.977577 108.129623,103.988281 107.336426,103.997437 
	C106.996155,91.312950 106.995934,78.629997 106.994247,65.479645 
z"/>
<path fill="#7A89A1" opacity="1.000000" stroke="none" 
	d="
M109.525955,144.220215 
	C108.550446,144.997253 108.102821,144.992691 107.319244,144.979126 
	C106.988358,137.542328 106.982811,130.114517 107.002029,122.686760 
	C107.015945,117.309273 107.422836,111.886612 105.001694,106.408752 
	C106.062927,105.998680 107.126465,105.997063 108.916245,106.343658 
	C110.941673,109.366386 110.578178,112.243675 110.519249,115.039841 
	C110.319748,124.505569 111.144981,133.988754 109.525955,144.220215 
z"/>
<path fill="#EDF2F8" opacity="1.000000" stroke="none" 
	d="
M122.765778,104.930481 
	C123.331779,107.945862 123.935104,110.867805 123.969307,113.796387 
	C124.087494,123.913979 124.007339,134.033890 123.992500,144.627945 
	C122.850288,145.979980 121.628204,146.080933 119.954453,145.225098 
	C117.562851,137.613266 118.388763,130.132065 118.918938,122.807709 
	C119.313026,117.363518 119.330551,111.944809 119.451263,106.049469 
	C117.773735,99.561279 118.756195,93.410339 118.537910,87.319298 
	C118.343056,81.882278 118.802956,76.431274 117.919044,71.004097 
	C117.627930,69.216713 118.444313,67.437561 119.352417,65.335945 
	C120.735916,64.036446 121.940086,63.932190 123.607346,64.818863 
	C125.089371,76.924568 125.009956,88.766426 124.932007,100.609657 
	C124.923820,101.854156 124.675552,102.895195 123.328186,103.831917 
	C122.766068,104.233421 122.611000,104.512848 122.765778,104.930481 
z"/>
<path fill="#EDF2F8" opacity="1.000000" stroke="none" 
	d="
M125.365128,173.968430 
	C125.701027,174.095123 125.817337,174.542053 125.886986,174.762024 
	C125.956635,174.981995 125.837891,175.454483 125.784286,175.692108 
	C124.047363,178.735657 125.912956,182.049347 124.135834,185.192322 
	C122.682732,186.096786 121.527573,186.081161 119.990974,185.310776 
	C118.917435,184.061722 118.666313,182.934692 118.604263,181.770462 
	C118.034996,171.090256 119.510017,160.340317 117.493172,149.701920 
	C117.317719,148.776398 117.712379,147.743973 118.356544,146.430817 
	C120.015839,145.030655 121.602753,145.693695 123.539436,145.707947 
	C123.990807,154.492935 124.005615,163.124176 124.019127,171.755417 
	C124.020477,172.615082 124.214577,173.377655 125.365128,173.968430 
z"/>
<path fill="#E9EFF6" opacity="1.000000" stroke="none" 
	d="
M116.876625,61.822853 
	C119.265465,61.875187 121.658150,61.967228 124.485023,62.156113 
	C124.755554,62.752144 124.591904,63.251335 124.199509,63.899269 
	C121.924484,64.661011 119.840424,64.806450 117.353287,64.285400 
	C116.982452,64.017990 116.989311,64.008713 116.980827,64.016708 
	C116.608963,63.614056 116.464264,63.137066 116.735519,62.258247 
	C116.932838,61.922760 116.880470,61.862560 116.876625,61.822853 
z"/>
<path fill="#BDC5D2" opacity="1.000000" stroke="none" 
	d="
M116.968994,64.244072 
	C119.021873,64.022919 121.061302,64.027847 123.535744,64.040390 
	C123.976280,64.225029 123.981789,64.402061 123.988464,64.846039 
	C122.939690,65.098190 121.889755,65.083389 120.446960,65.100235 
	C119.461983,65.565857 118.810135,65.789131 117.495880,65.308464 
	C116.923485,64.921982 116.955528,64.470154 116.968994,64.244072 
z"/>
<path fill="#A4ADBE" opacity="1.000000" stroke="none" 
	d="
M123.975182,145.671997 
	C122.603104,145.925125 121.229858,145.988556 119.445717,146.091858 
	C118.653557,146.411957 118.225250,146.518555 117.449463,146.322052 
	C117.018951,145.971191 116.896004,145.776062 116.817230,145.236557 
	C117.043327,144.747955 117.225258,144.603714 117.740982,144.357941 
	C118.544525,144.233994 118.997124,144.308502 119.717964,144.691193 
	C121.067055,144.935287 122.127838,144.984482 123.585464,145.068329 
	C123.982307,145.102966 123.974007,145.482285 123.975182,145.671997 
z"/>
<path fill="#E9EFF6" opacity="1.000000" stroke="none" 
	d="
M122.993027,104.766090 
	C122.760696,105.116768 122.532036,105.212662 122.303375,105.308556 
	C122.404778,104.943359 122.506180,104.578171 122.807487,104.107391 
	C123.003830,104.171638 123.000259,104.341469 122.993027,104.766090 
z"/>
<path fill="#6986B1" opacity="1.000000" stroke="none" 
	d="
M106.028748,37.379261 
	C109.379311,37.268284 109.009186,34.913193 108.991608,32.402756 
	C109.200592,30.632900 108.407074,28.936714 110.627594,28.047749 
	C112.311104,29.164333 111.892502,30.762985 111.989403,32.618034 
	C111.994621,33.747631 112.001381,34.498779 112.005836,35.625511 
	C111.068695,36.951363 111.219955,38.090000 111.444313,39.239697 
	C112.759789,45.980839 110.759537,52.568924 110.269608,59.578442 
	C108.509499,59.804104 107.002037,59.689671 105.231522,59.308315 
	C106.167557,55.267372 106.431099,51.443550 105.287781,47.277229 
	C105.005630,45.936905 105.015236,44.879734 105.029495,43.426018 
	C105.735855,42.393745 105.996292,41.578583 106.004852,40.327591 
	C106.014915,39.248917 106.018471,38.500999 106.028748,37.379261 
z"/>
<path fill="#708FB7" opacity="1.000000" stroke="none" 
	d="
M110.357269,59.943943 
	C109.084152,52.969872 112.245926,46.034134 110.061058,39.056442 
	C109.742493,38.039047 109.864502,36.722248 111.622948,36.081081 
	C114.762955,43.659115 111.146149,51.327007 112.049942,59.436169 
	C111.606361,59.912731 111.151970,59.941036 110.357269,59.943943 
z"/>
<path fill="#708FB7" opacity="1.000000" stroke="none" 
	d="
M112.262833,32.766701 
	C110.505859,31.852901 111.153816,30.210066 110.989441,28.367065 
	C111.090500,27.657131 111.279068,27.396732 111.768250,27.085400 
	C112.929939,28.753183 113.481750,30.570852 112.262833,32.766701 
z"/>
<path fill="#B4DCF2" opacity="1.000000" stroke="none" 
	d="
M116.033508,28.385616 
	C117.139397,28.111399 118.568062,27.736710 118.777023,29.368380 
	C118.948151,30.704496 117.865486,30.905308 116.462784,30.961760 
	C116.077827,30.224077 116.050377,29.488909 116.033508,28.385616 
z"/>
<path fill="#A7CEE5" opacity="1.000000" stroke="none" 
	d="
M118.884834,58.915264 
	C118.584793,59.414162 118.133171,59.631687 117.423668,59.804569 
	C117.106438,59.371574 117.047081,58.983219 116.991348,58.298332 
	C117.574394,58.212494 118.153824,58.423191 118.884834,58.915264 
z"/>
<path fill="#7E88A1" opacity="1.000000" stroke="none" 
	d="
M96.066597,189.028687 
	C98.844040,188.374420 98.708862,186.093872 99.057289,183.988464 
	C99.340790,182.275391 99.929070,180.612747 100.409157,178.827484 
	C102.103096,180.720779 99.138817,184.354721 103.590965,184.966980 
	C105.412117,185.630203 106.898857,186.357910 106.974892,183.764267 
	C107.032333,181.804749 106.994179,179.842407 106.999130,177.440674 
	C107.420799,176.625519 107.911331,176.469284 108.838219,176.692627 
	C110.987602,179.069122 109.723366,182.089310 111.321655,184.778183 
	C111.455444,185.447098 111.461914,185.725082 111.385307,186.415009 
	C109.867790,191.321777 110.662132,195.954773 110.460892,200.525558 
	C110.374489,202.487915 110.541298,204.475052 109.519211,206.724228 
	C108.502289,207.690948 107.648033,207.782120 106.343155,207.276581 
	C105.951813,207.052109 105.465614,207.025024 105.223907,206.993866 
	C103.289970,204.403061 104.640480,201.881531 104.909790,199.282410 
	C105.247566,196.022568 104.988441,192.699402 104.959572,189.403809 
	C104.948219,188.108582 104.480316,187.141495 102.968750,187.161270 
	C101.449440,187.181137 101.052261,188.182663 101.038498,189.464630 
	C101.013718,191.771515 101.098885,194.083786 100.965500,196.383804 
	C100.876686,197.915298 101.694382,199.760315 99.381393,200.918915 
	C98.962166,199.967300 98.940086,198.923096 98.915909,197.487488 
	C97.618256,195.818237 98.359299,193.930984 97.331039,192.232819 
	C96.917770,191.401733 96.715057,190.847946 96.250107,190.147629 
	C95.879868,189.835312 95.771881,189.669540 95.825195,189.254669 
	C95.986504,189.005554 96.038002,189.030762 96.066597,189.028687 
z"/>
<path fill="#7A89A1" opacity="1.000000" stroke="none" 
	d="
M109.330994,176.656647 
	C108.568123,177.000397 108.120010,177.000198 107.335793,177.000000 
	C106.999046,170.102036 106.966080,163.203857 107.012131,156.306198 
	C107.033348,153.127319 104.845535,149.950943 106.988098,146.399429 
	C107.430977,146.018936 107.877663,146.010391 108.942459,146.288864 
	C109.951889,147.313202 110.123238,148.112488 110.264328,149.349182 
	C110.337471,150.338257 110.364021,150.910049 110.415497,151.926163 
	C110.098930,160.348343 111.400681,168.381638 109.330994,176.656647 
z"/>
<path fill="#8C96AD" opacity="1.000000" stroke="none" 
	d="
M104.463959,167.609833 
	C104.694473,168.420456 104.409393,168.711731 103.781616,168.588745 
	C103.650940,168.563141 103.474564,168.378464 103.454620,168.246628 
	C103.358597,167.611969 103.666756,167.345169 104.463959,167.609833 
z"/>
<path fill="#8C96AD" opacity="1.000000" stroke="none" 
	d="
M97.081215,192.351898 
	C99.789383,192.524124 98.771744,194.669174 98.944359,196.694153 
	C96.286751,196.509216 97.195107,194.400238 97.081215,192.351898 
z"/>
<path fill="#B9C2D2" opacity="1.000000" stroke="none" 
	d="
M95.792908,189.113708 
	C95.986504,189.005554 95.990303,189.503311 95.989075,189.752197 
	C95.987854,190.001083 95.544235,189.968277 95.323708,189.951752 
	C95.184952,189.639282 95.350334,189.401505 95.792908,189.113708 
z"/>
<path fill="#BBE7FC" opacity="1.000000" stroke="none" 
	d="
M120.710648,36.046059 
	C120.797829,36.837109 120.710869,37.431999 120.623901,38.026890 
	C120.510788,38.007977 120.323708,38.023987 120.295784,37.964851 
	C119.942368,37.216209 119.791908,36.478146 120.710648,36.046059 
z"/>
<path fill="#A9B2C4" opacity="1.000000" stroke="none" 
	d="
M131.756500,193.191101 
	C132.032120,192.954193 132.517075,192.979050 132.759705,192.988617 
	C133.001968,194.065659 133.001602,195.133133 133.000015,196.600922 
	C132.554214,196.999557 132.109665,196.997879 131.331635,196.996277 
	C131.159058,195.806900 131.319962,194.617462 131.756500,193.191101 
z"/>
<path fill="#6C7A91" opacity="1.000000" stroke="none" 
	d="
M105.928848,207.358612 
	C106.729774,207.027435 107.507729,207.002762 108.673859,206.963669 
	C109.704262,206.409241 110.424767,206.023407 111.654114,205.779358 
	C113.411064,205.585632 114.762840,205.665543 116.511658,205.722656 
	C119.954056,206.531021 123.041687,206.575836 126.514587,206.417267 
	C126.902138,207.089233 126.924072,207.623154 126.929543,208.557617 
	C123.263718,211.288467 119.220688,209.232101 115.984627,210.039230 
	C118.323807,211.143494 122.377541,207.775726 124.234848,212.592194 
	C119.493202,212.924591 114.868599,213.389313 110.383720,212.796661 
	C108.302490,212.521667 103.318443,212.845032 105.928848,207.358612 
z"/>
<path fill="#7E88A1" opacity="1.000000" stroke="none" 
	d="
M124.404907,212.905487 
	C123.430908,210.234818 121.265602,211.171356 119.600243,211.023407 
	C116.297745,210.729996 112.883659,211.561783 109.658104,210.502365 
	C109.654579,209.996170 109.651054,209.489960 109.647530,208.983765 
	C115.097076,208.983765 120.546616,208.983765 126.454620,208.970978 
	C126.671562,210.036255 126.430038,211.114349 126.159195,212.518829 
	C125.669640,212.869629 125.209419,212.894012 124.404907,212.905487 
z"/>
<path fill="#B4DCF2" opacity="1.000000" stroke="none" 
	d="
M123.617340,54.041302 
	C123.969193,54.739971 123.993614,55.495995 123.999146,56.629982 
	C121.879410,56.482090 121.207962,55.617050 123.617340,54.041302 
z"/>
<path fill="#DCE4EE" opacity="1.000000" stroke="none" 
	d="
M126.830048,206.499252 
	C123.913361,207.873444 120.855797,207.572037 117.403107,207.013275 
	C114.150032,201.186203 115.880157,195.083298 115.855698,188.670227 
	C116.084473,187.952744 116.207108,187.677811 116.617020,187.058426 
	C117.695007,186.252426 118.533501,186.166702 119.769272,186.575439 
	C122.613235,190.831299 120.470497,195.560242 122.022179,200.290909 
	C123.437019,195.715942 121.671463,191.257202 123.787369,186.960205 
	C124.599655,186.483276 125.140366,186.464783 126.048882,186.851776 
	C127.931656,189.567978 127.321655,192.321671 127.445389,195.422638 
	C127.660149,199.109329 126.931801,202.342697 127.108292,205.948181 
	C126.853386,206.311890 126.779900,206.443176 126.830048,206.499252 
z"/>
<path fill="#7E88A1" opacity="1.000000" stroke="none" 
	d="
M126.285233,196.296906 
	C126.057579,193.330551 125.988411,190.647079 125.856827,187.522095 
	C125.497604,186.635910 125.266731,186.159271 125.074661,185.252258 
	C125.049316,184.048019 125.104836,183.253540 125.829346,182.274200 
	C126.597267,181.739990 127.059021,181.464935 127.770363,181.088242 
	C128.043762,182.021240 128.067581,183.055893 128.096954,184.478271 
	C129.120926,185.871460 128.784927,187.398712 129.722870,188.769836 
	C129.936569,189.022171 129.977570,189.014160 129.996490,189.005295 
	C130.385162,189.387405 130.527390,189.848557 130.224579,190.690369 
	C128.556137,192.141464 129.161697,193.777664 128.974686,195.612457 
	C128.292160,196.930725 127.618599,197.841003 126.285233,196.296906 
z"/>
<path fill="#8590A6" opacity="1.000000" stroke="none" 
	d="
M126.068077,196.448059 
	C126.889420,196.391479 127.647270,196.834335 128.723114,196.093445 
	C129.276230,199.367004 128.572693,202.573456 127.135880,206.010101 
	C125.776413,203.239838 125.939873,200.056763 126.068077,196.448059 
z"/>
<path fill="#A9B2C4" opacity="1.000000" stroke="none" 
	d="
M130.339447,191.000153 
	C130.004150,190.555649 130.001282,190.110428 130.006912,189.330826 
	C130.456223,188.997574 130.897049,188.998718 131.669540,188.999176 
	C132.001648,189.443634 132.002060,189.888794 132.002274,190.668213 
	C131.558670,191.001465 131.115280,191.000458 130.339447,191.000153 
z"/>
<path fill="#8590A6" opacity="1.000000" stroke="none" 
	d="
M129.963654,188.647003 
	C127.769135,188.757385 128.019180,187.133392 128.068970,185.253418 
	C130.085800,185.250656 130.045502,186.757248 129.963654,188.647003 
z"/>
<path fill="#9CA8BA" opacity="1.000000" stroke="none" 
	d="
M109.049332,103.956146 
	C109.047447,91.303429 109.058952,78.639992 109.116753,65.515602 
	C110.227097,65.062302 111.291153,65.069954 112.755562,65.120667 
	C115.036400,67.906464 115.200912,71.048248 114.840553,74.140907 
	C114.363731,78.233032 114.679329,82.342995 114.185806,86.828156 
	C113.289925,90.457542 112.737129,93.684624 114.245071,97.246536 
	C114.891655,98.479721 115.030128,99.449379 114.895966,100.812134 
	C114.556313,102.116158 113.889626,102.792397 112.984245,103.717865 
	C112.555313,104.102104 112.371986,104.241905 111.872490,104.519836 
	C110.866989,104.821815 110.201195,104.777443 109.333801,104.189590 
	C109.098305,103.945877 109.062721,103.945435 109.049332,103.956146 
z"/>
<path fill="#BDC5D2" opacity="1.000000" stroke="none" 
	d="
M113.027542,88.421951 
	C113.045616,80.657494 113.052513,73.319618 113.107658,65.572739 
	C114.160408,65.102798 115.164909,65.041862 116.546448,64.951454 
	C116.923485,64.921982 117.040916,65.040298 117.099854,65.099236 
	C119.320282,68.322922 118.144249,71.989792 118.303894,75.328850 
	C118.724312,84.121696 118.709427,92.956657 118.193893,102.220215 
	C117.756752,103.539551 117.317665,104.311707 115.930038,104.689148 
	C115.223167,104.719391 114.942329,104.681488 114.290146,104.447441 
	C113.589584,103.777580 113.463402,103.255363 113.761475,102.335587 
	C113.978523,100.928680 113.978409,99.869873 113.973198,98.414032 
	C112.159660,95.115654 113.347183,91.903290 113.027542,88.421951 
z"/>
<path fill="#9CA8BA" opacity="1.000000" stroke="none" 
	d="
M110.056747,61.540672 
	C111.209808,61.213139 112.361641,61.254341 113.783234,61.515068 
	C114.402542,62.179283 114.541473,62.682152 114.266090,63.592983 
	C112.464622,63.781609 110.287849,64.761375 110.056747,61.540672 
z"/>
<path fill="#B9C2D2" opacity="1.000000" stroke="none" 
	d="
M114.425308,63.966942 
	C114.042847,63.453091 114.023270,62.963425 114.028336,62.104179 
	C114.773865,61.770546 115.494743,61.806488 116.574234,61.882595 
	C116.950699,62.389652 116.968552,62.856544 116.979370,63.674072 
	C116.244293,64.013512 115.516251,64.002319 114.425308,63.966942 
z"/>
<path fill="#687CA0" opacity="1.000000" stroke="none" 
	d="
M105.746132,40.204277 
	C107.253120,41.127857 107.371605,42.128742 105.353470,42.974274 
	C105.183067,42.156891 105.331985,41.284306 105.746132,40.204277 
z"/>
<path fill="#D6DADE" opacity="1.000000" stroke="none" 
	d="
M126.086639,181.581696 
	C126.064163,182.750565 125.992813,183.486069 125.845512,184.583328 
	C125.434845,185.313431 125.018204,185.445251 124.246262,185.168854 
	C124.573204,182.067734 122.900925,178.897156 125.373734,176.055786 
	C125.833046,177.669250 125.935417,179.408798 126.086639,181.581696 
z"/>
<path fill="#8C96AD" opacity="1.000000" stroke="none" 
	d="
M109.069595,104.287514 
	C109.820984,103.964211 110.543655,103.982544 111.629242,104.004120 
	C112.843842,106.127518 111.739952,106.620461 109.533066,106.279465 
	C109.155922,106.049507 109.073639,106.018021 109.030624,106.007835 
	C109.005379,105.541481 109.023140,105.085320 109.069595,104.287514 
z"/>
<path fill="#7E88A1" opacity="1.000000" stroke="none" 
	d="
M116.619812,144.799286 
	C116.901039,145.116699 116.950867,145.534576 116.696289,146.026291 
	C115.520966,147.054932 114.495819,147.149323 113.078743,147.233795 
	C111.647835,147.231750 110.630806,147.097748 109.401108,146.320358 
	C109.093086,146.087006 109.043808,146.040771 109.018982,146.017715 
	C108.994164,145.994659 109.006241,145.498260 109.002151,145.250031 
	C108.998070,145.001816 109.066246,144.937851 109.100189,144.905716 
	C110.008171,144.061508 111.095863,143.824707 112.656464,143.710510 
	C114.229652,143.693909 115.332870,143.885071 116.619812,144.799286 
z"/>
<path fill="#9CA8BA" opacity="1.000000" stroke="none" 
	d="
M113.424675,144.486694 
	C112.068192,144.862320 110.997780,144.898834 109.530746,144.904480 
	C109.111687,132.240021 109.089249,119.606468 109.111366,106.511215 
	C110.249695,105.951851 111.493416,106.155128 111.946846,104.344398 
	C111.992157,104.007362 112.008743,103.991722 112.016586,103.984276 
	C112.412926,103.611084 112.870636,103.470230 113.707603,103.767052 
	C114.017662,103.979881 114.079994,103.980080 114.111000,103.983200 
	C115.487984,107.137772 115.232414,110.694748 114.918098,113.727776 
	C113.867470,123.865639 117.121727,134.152618 113.424675,144.486694 
z"/>
<path fill="#DCE4EE" opacity="1.000000" stroke="none" 
	d="
M116.962067,104.389076 
	C117.021187,91.352875 117.036140,78.704788 117.104942,65.607437 
	C117.881355,65.123451 118.603928,65.088730 119.690292,65.092941 
	C119.792503,78.171021 119.571381,91.209526 120.830414,104.610901 
	C120.792648,105.155319 120.588654,105.316360 120.026077,105.633194 
	C118.563972,105.959877 117.587830,105.784615 116.962067,104.389076 
z"/>
<path fill="#E9EFF6" opacity="1.000000" stroke="none" 
	d="
M119.615509,105.232910 
	C120.042107,104.996452 120.519417,104.996857 120.758026,104.995567 
	C121.310333,118.002708 119.274811,130.951141 120.003754,144.428116 
	C119.576874,144.908157 119.147469,144.930206 118.395523,144.938324 
	C116.683151,143.515869 116.474075,141.711807 116.458771,139.879532 
	C116.377563,130.154373 116.312515,120.428116 116.502953,110.704521 
	C116.543480,108.635170 116.442123,106.257484 119.615509,105.232910 
z"/>
<path fill="#DCE4EE" opacity="1.000000" stroke="none" 
	d="
M116.980286,145.979584 
	C117.428177,145.983017 117.888351,146.010956 118.691673,146.085312 
	C120.389824,158.742630 119.893700,171.400665 120.004761,184.510620 
	C119.284096,185.681488 118.422684,185.787369 117.083549,185.318939 
	C116.510773,184.827713 116.338112,184.568939 116.000656,183.870544 
	C115.183243,171.998352 115.544159,160.560822 115.677658,149.124649 
	C115.687500,148.281952 116.013031,147.508621 116.737289,146.415009 
	C117.030724,146.043533 116.992569,146.004120 116.980286,145.979584 
z"/>
<path fill="#C2CAD7" opacity="1.000000" stroke="none" 
	d="
M116.811340,185.289185 
	C117.762070,184.992432 118.511238,184.995956 119.635109,184.988678 
	C121.064316,184.989075 122.118828,185.000290 123.567329,184.987656 
	C124.364052,184.966080 124.766785,184.968338 125.469543,184.957840 
	C125.806931,185.420013 125.844299,185.894943 125.838036,186.725235 
	C125.389595,187.069351 124.984795,187.058105 124.275620,187.051025 
	C122.963791,187.869659 121.872231,188.039764 120.329926,187.225616 
	C119.217155,186.967865 118.460396,186.968430 117.325516,186.955521 
	C116.663109,186.534042 116.550598,186.083191 116.811340,185.289185 
z"/>
<path fill="#C2CAD7" opacity="1.000000" stroke="none" 
	d="
M119.702957,104.984009 
	C117.985001,106.387901 117.908791,108.423843 117.926987,110.670448 
	C118.016960,121.781311 117.982613,132.893188 118.032547,144.464554 
	C117.877769,144.955734 117.682549,144.987076 117.194183,145.067551 
	C115.896324,145.044586 114.891609,144.972473 113.512741,144.863068 
	C115.327332,136.081696 111.788673,127.197693 113.898712,118.387772 
	C114.955727,113.974426 111.539047,109.335243 114.063232,104.391594 
	C114.856750,103.991592 115.571487,103.996857 116.646233,104.001541 
	C117.570740,104.862152 118.448692,104.961998 119.702957,104.984009 
z"/>
<path fill="#98A3B6" opacity="1.000000" stroke="none" 
	d="
M109.018036,177.433563 
	C109.039986,168.618225 109.063736,160.235855 109.140366,151.382111 
	C112.694221,149.645233 113.252792,152.140518 113.273026,154.484009 
	C113.356766,164.182434 113.813278,173.888474 112.832962,184.030273 
	C112.405663,184.716263 112.177986,184.952560 111.465286,185.105103 
	C107.286438,183.469482 109.746765,180.231354 109.018036,177.433563 
z"/>
<path fill="#9CA8BA" opacity="1.000000" stroke="none" 
	d="
M117.007431,184.993820 
	C116.998596,185.423355 116.984299,185.857834 116.958694,186.617157 
	C116.947395,186.942032 116.932198,186.929977 116.919724,186.931900 
	C114.392311,188.947571 114.446274,191.775436 114.407104,194.612732 
	C114.352783,198.547668 114.801224,202.572723 112.377197,206.496674 
	C111.342194,206.859543 110.582420,206.921234 109.442337,206.966095 
	C109.056519,201.515991 108.997284,196.081894 109.079926,190.649979 
	C109.103149,189.123840 108.325401,187.284729 110.607864,186.096893 
	C111.555428,185.398834 112.460419,185.419983 113.305206,184.712494 
	C113.765038,184.494064 113.956352,184.419968 114.450256,184.278793 
	C115.386848,184.153397 115.992455,184.236740 116.771454,184.787994 
	C116.995102,185.004822 117.001968,184.998749 117.007431,184.993820 
z"/>
<path fill="#8C96AD" opacity="1.000000" stroke="none" 
	d="
M113.691460,184.822769 
	C113.454018,185.932358 112.576035,186.000763 111.336525,186.003616 
	C111.001526,186.001770 110.995163,185.511230 110.987717,185.266296 
	C111.156822,185.009918 111.333382,184.998474 111.774940,184.972687 
	C112.437050,184.633041 112.888313,184.515289 113.691460,184.822769 
z"/>
<path fill="#A9B2C4" opacity="1.000000" stroke="none" 
	d="
M113.999298,185.007477 
	C113.555740,185.022568 113.122284,185.004593 112.364388,184.972473 
	C112.026733,175.066483 112.042336,165.174469 111.971901,155.283035 
	C111.960175,153.637192 112.771255,151.430237 109.588165,150.954407 
	C109.179291,150.508148 109.165337,150.105545 109.177582,149.400635 
	C110.357773,147.920151 111.341156,146.403076 113.762863,147.216797 
	C115.287224,148.528595 115.988022,149.903336 115.856911,151.442169 
	C115.008438,161.400040 115.778259,171.378204 115.399582,181.339493 
	C115.361420,182.343277 115.121193,183.312515 114.319168,184.551788 
	C114.033234,184.909515 114.009407,184.974426 113.999298,185.007477 
z"/>
<path fill="#98A3B6" opacity="1.000000" stroke="none" 
	d="
M113.175041,146.798004 
	C111.949265,147.681091 111.460358,149.229294 109.525406,149.069427 
	C109.149986,148.343933 109.096169,147.589554 109.067719,146.461090 
	C110.162834,146.077469 111.232582,146.067932 112.704521,146.089142 
	C113.188034,146.278641 113.269363,146.437393 113.175041,146.798004 
z"/>
<path fill="#B9C2D2" opacity="1.000000" stroke="none" 
	d="
M112.505623,206.871643 
	C113.239525,201.322006 113.077225,195.770538 112.977257,190.233795 
	C112.936325,187.966797 113.750023,186.825989 116.494263,186.950272 
	C116.940010,193.299835 116.972771,199.665833 117.012527,206.496857 
	C115.649437,206.956390 114.279366,206.950912 112.505623,206.871643 
z"/>
<path fill="#EDF2F8" opacity="1.000000" stroke="none" 
	d="
M119.980240,187.435669 
	C121.041313,186.973907 122.108711,186.980545 123.573677,187.021179 
	C123.597717,192.534821 125.044014,198.206741 122.416031,204.472641 
	C118.570847,198.678421 120.550728,193.106506 119.980240,187.435669 
z"/>
<path fill="#A9B2C4" opacity="1.000000" stroke="none" 
	d="
M112.739914,88.272629 
	C114.985329,90.866173 113.588493,94.088234 113.982742,97.568802 
	C110.066643,95.408501 112.516357,91.775566 112.739914,88.272629 
z"/>
<path fill="#A9B2C4" opacity="1.000000" stroke="none" 
	d="
M114.014069,103.647934 
	C113.574394,103.982613 113.131134,103.985352 112.356148,103.982460 
	C112.078613,103.074265 112.318405,102.300880 113.662827,102.031982 
	C113.989250,102.430321 113.999863,102.873154 114.014069,103.647934 
z"/>
<path fill="#BDC5D2" opacity="1.000000" stroke="none" 
	d="
M113.151291,147.333191 
	C112.999397,146.999847 113.031517,146.556458 113.069115,146.338165 
	C114.152298,146.077927 115.197884,146.035980 116.637100,146.018784 
	C117.016434,158.717865 117.002136,171.392181 116.991470,184.535675 
	C116.253883,184.990433 115.512672,184.976044 114.402344,184.935577 
	C114.447151,173.872696 113.080704,162.800446 114.763382,151.773956 
	C114.956490,150.508560 113.822083,149.040588 113.151291,147.333191 
z"/>
</svg>